# xmcd
#
# Track frame offsets:
#	150
#	14220
#	26152
#	38242
#	50817
#	63514
#	77304
#	90252
#	103952
#	116670
#	127885
#	141225
#	154585
#	164452
#
# Disc length: 2390 seconds
#
# Revision: 1
# Processed by: cddbd v1.5.1PL0 Copyright (c) Steve Scherf et al.
# Submitted via: audiograbber 1.83.01
#
DISCID=bb09540e
DTITLE=The Andrews Sisters - Boogie Woogie Bugle Boy - Greatest Hits CD3
DYEAR=1900
DGENRE=
TTITLE0=Don't Fence Me In (with Bing Crosby)
TTITLE1=I Can Dream, Can't I
TTITLE2=Rhumboogie
TTITLE3=The Shrine Of St. Cecilia
TTITLE4=Nice Work If You Can Get It
TTITLE5=Civilization (Bongo, Bongo, Bongo) (with Danny Kaye)
TTITLE6=Toolie Oolie Doolie (The Yodel Polka)
TTITLE7=Mr. Five By Five
TTITLE8=Strip Polka
TTITLE9=Straighten Up And Fly Right
TTITLE10=Rumors Are Flying (with Les Paul)
TTITLE11=The Lady From 29 Palms
TTITLE12=Woody Woodpecker (with Danny Kaye)
TTITLE13=I Wanna Be Loved
EXTD=
EXTT0=
EXTT1=
EXTT2=
EXTT3=
EXTT4=
EXTT5=
EXTT6=
EXTT7=
EXTT8=
EXTT9=
EXTT10=
EXTT11=
EXTT12=
EXTT13=
PLAYORDER=
